<?xml version="1.0" encoding="utf-8"?><svg viewBox="0 0 254 43" xmlns="http://www.w3.org/2000/svg" xmlns:xlink="http://www.w3.org/1999/xlink"><style>:root>svg{display:none}:root>svg:target{display:block}</style><svg fill="none" viewBox="0 0 16 23" id="address" xmlns="http://www.w3.org/2000/svg"><path d="M13.087 2.246C11.59.749 9.783 0 7.667 0 5.55 0 3.743.749 2.247 2.246.748 3.743 0 5.55 0 7.666c0 1.089.165 1.982.494 2.681l5.466 11.59c.15.33.381.589.696.778.314.19.651.285 1.01.285.36 0 .697-.095 1.012-.285.314-.19.55-.449.71-.778l5.45-11.59c.33-.699.495-1.592.495-2.68 0-2.117-.748-3.923-2.246-5.42zm-2.71 8.13a3.693 3.693 0 01-2.71 1.124 3.694 3.694 0 01-2.71-1.123 3.693 3.693 0 01-1.124-2.71c0-1.059.375-1.962 1.123-2.71a3.694 3.694 0 012.71-1.124c1.059 0 1.962.375 2.71 1.123a3.693 3.693 0 011.124 2.71 3.694 3.694 0 01-1.123 2.71z" fill="#00793A"/></svg><svg fill="none" viewBox="0 0 17 23" id="address-white" xmlns="http://www.w3.org/2000/svg"><path d="M13.92 2.246C12.424.749 10.617 0 8.5 0S4.577.749 3.08 2.246C1.582 3.743.833 5.55.833 7.666c0 1.089.165 1.982.494 2.681l5.466 11.59c.15.33.382.589.696.778.315.19.652.285 1.011.285.36 0 .697-.095 1.011-.285.315-.19.551-.449.711-.778l5.45-11.59c.33-.699.495-1.592.495-2.68 0-2.117-.749-3.923-2.246-5.42zm-2.71 8.13A3.693 3.693 0 018.5 11.5a3.694 3.694 0 01-2.71-1.123 3.693 3.693 0 01-1.123-2.71c0-1.059.374-1.962 1.123-2.71A3.694 3.694 0 018.5 3.832c1.058 0 1.962.375 2.71 1.123a3.693 3.693 0 011.123 2.71 3.694 3.694 0 01-1.123 2.71z" fill="#fff"/></svg><svg fill="none" viewBox="0 0 18 18" id="iconcross" xmlns="http://www.w3.org/2000/svg"><path d="M9 6.8L15.05.75a1.556 1.556 0 112.2 2.2L11.2 9l6.05 6.05a1.556 1.556 0 01-2.2 2.2L9 11.2l-6.05 6.05a1.556 1.556 0 01-2.2-2.2L6.8 9 .75 2.95a1.556 1.556 0 112.2-2.2L9 6.8z" fill="#9E9BA2"/></svg><svg fill="none" viewBox="0 0 32 32" id="instagram" xmlns="http://www.w3.org/2000/svg"><rect width="31.111" height="31.111" rx="13.333" transform="matrix(1 0 0 -1 .445 31.556)" fill="#00793A"/><path d="M19.98 7.111H12.02A4.92 4.92 0 008.55 8.553a4.908 4.908 0 00-1.438 3.47v7.963c.002 1.3.52 2.546 1.44 3.465a4.92 4.92 0 003.47 1.438h7.958a4.92 4.92 0 003.47-1.438 4.908 4.908 0 001.44-3.465v-7.963c0-1.302-.517-2.55-1.438-3.47A4.92 4.92 0 0019.98 7.11zm3.334 12.875a3.337 3.337 0 01-3.335 3.323h-7.958c-.883 0-1.73-.35-2.356-.973a3.329 3.329 0 01-.98-2.35v-7.963a3.337 3.337 0 01.98-2.354 3.345 3.345 0 012.356-.977h7.958a3.345 3.345 0 013.335 3.33v7.964z" fill="#fff"/><path d="M16.008 11.556a4.445 4.445 0 10-.015 8.889 4.445 4.445 0 00.015-8.89zm0 7.35a2.913 2.913 0 110-5.827 2.913 2.913 0 010 5.826zM20.448 10.444a1.117 1.117 0 00-1.114 1.111 1.11 1.11 0 001.114 1.112c.294-.003.575-.117.788-.319a1.124 1.124 0 000-1.57 1.153 1.153 0 00-.788-.334z" fill="#fff"/></svg><svg fill="none" viewBox="0 0 28 28" id="instagram-white" xmlns="http://www.w3.org/2000/svg"><rect width="28" height="28" rx="12" transform="matrix(1 0 0 -1 0 28)" fill="#fff"/><path d="M17.581 6H10.42a4.429 4.429 0 00-3.125 1.297A4.417 4.417 0 006 10.42v7.167a4.417 4.417 0 001.296 3.118A4.429 4.429 0 0010.42 22h7.162a4.429 4.429 0 003.123-1.295A4.417 4.417 0 0022 17.587V10.42a4.417 4.417 0 00-1.294-3.123A4.429 4.429 0 0017.581 6zm3.002 11.587a2.996 2.996 0 01-3.002 2.99H10.42a3.004 3.004 0 01-3.002-2.99V10.42a3.003 3.003 0 013.002-2.998h7.162a3.01 3.01 0 013.002 2.998v7.167z" fill="#333"/><path d="M14.007 10a4 4 0 10-.014 8 4 4 0 00.014-8zm0 6.615a2.622 2.622 0 110-5.244 2.622 2.622 0 010 5.244zM18.003 9A1.005 1.005 0 0017 10a.998.998 0 001.003 1c.264-.002.518-.104.709-.287a1.011 1.011 0 000-1.413 1.038 1.038 0 00-.709-.3z" fill="#333"/></svg><svg fill="none" viewBox="0 0 254 43" id="logo" xmlns="http://www.w3.org/2000/svg"><path d="M19.916 24.675c-5.1 0-9.25 4.114-9.25 9.176 0 5.034 4.15 9.15 9.25 9.15 5.113 0 9.27-4.116 9.27-9.15 0-5.062-4.157-9.176-9.27-9.176zm0 14.106c-2.73 0-4.974-2.222-4.974-4.93 0-2.72 2.245-4.943 4.974-4.943 2.748 0 4.986 2.222 4.986 4.943 0 2.707-2.238 4.93-4.986 4.93zM82.245 24.675c-5.108 0-9.258 4.114-9.258 9.176 0 5.034 4.15 9.15 9.258 9.15 5.106 0 9.249-4.116 9.249-9.15 0-5.062-4.143-9.176-9.25-9.176zm0 14.106c-2.75 0-4.988-2.222-4.988-4.93 0-2.72 2.238-4.943 4.988-4.943 2.75 0 4.986 2.222 4.986 4.943 0 2.707-2.237 4.93-4.986 4.93z" fill="#00793A"/><path d="M100.214 26.989c0-8.9-5.605-9.965-5.605-9.965-8.24-1.144-22.439-1.736-22.439-1.736C70.87 13.054 64.853 0 61.352 0H30.606c-4.455 0-11.753 12.725-13.354 15.604 0 0-5.591.947-8.227 1.552-1.46.328-5.518.407-5.518 11.62H0v5.075h8.533c0-6.231 5.107-11.28 11.383-11.28 6.301 0 11.395 5.049 11.395 11.28h39.538c0-6.231 5.086-11.28 11.396-11.28 6.288 0 11.388 5.049 11.388 11.28H102v-6.862h-1.786zM45.641 14.42H27.89c2.397-7.401 6.846-12.685 8.726-12.685h9.025V14.42h-.001zm3.307 0V1.736h11.514c2.371 0 7.571 10.74 9.032 13.487l-20.546-.802z" fill="#00793A"/><path d="M125.262 14.61h-4.228l-.738 2.39H117l4.693-12.797h2.901L129.322 17h-3.313l-.747-2.39zm-3.49-2.383h2.751l-1.379-4.438-1.372 4.438zM130.324 17V7.49h4.078c1.307 0 2.306.229 2.997.686.698.457 1.046 1.116 1.046 1.977 0 .44-.152.835-.457 1.187-.304.345-.75.612-1.336.8.756.129 1.339.38 1.749.755.411.37.616.832.616 1.39 0 .896-.34 1.572-1.02 2.03-.674.45-1.646.68-2.918.685h-4.755zm2.971-3.876v1.608h1.731c.37 0 .633-.064.791-.193.159-.129.238-.325.238-.589 0-.527-.305-.802-.914-.826h-1.846zm0-1.828h1.222c.357 0 .606-.059.747-.176.146-.123.219-.302.219-.536 0-.305-.087-.519-.263-.642-.176-.123-.449-.184-.818-.184h-1.107v1.538zM148.456 9.758h-2.997V17h-2.98V9.758h-2.953V7.49h8.93v2.268zM148.931 12.157c0-.949.184-1.793.553-2.531.37-.744.9-1.315 1.591-1.714.692-.398 1.503-.598 2.435-.598 1.424 0 2.546.443 3.366 1.328.82.879 1.23 2.077 1.23 3.594v.106c0 1.482-.413 2.66-1.239 3.533-.82.867-1.933 1.3-3.34 1.3-1.353 0-2.44-.404-3.26-1.212-.821-.815-1.263-1.916-1.328-3.305l-.008-.5zm2.962.185c0 .879.137 1.523.413 1.933.275.41.682.616 1.221.616 1.055 0 1.594-.812 1.618-2.435v-.299c0-1.705-.545-2.557-1.635-2.557-.99 0-1.527.735-1.609 2.206l-.008.536zM165.779 7.754c0-.404-.158-.73-.474-.976-.311-.246-.733-.369-1.266-.369-.498 0-.899.12-1.204.36a1.125 1.125 0 00-.448.932h-3.076c0-.703.199-1.333.597-1.89.404-.556.973-.99 1.705-1.3.733-.317 1.541-.475 2.426-.475 1.523 0 2.707.32 3.551.958.849.639 1.274 1.532 1.274 2.68 0 .587-.173 1.123-.518 1.61-.34.48-.812.86-1.415 1.142.691.246 1.218.62 1.582 1.125.369.498.553 1.119.553 1.863 0 1.149-.457 2.063-1.371 2.742-.914.674-2.133 1.011-3.656 1.011-1.412 0-2.584-.331-3.516-.993-.931-.668-1.397-1.576-1.397-2.725h3.094c0 .381.17.703.509.967.34.258.777.387 1.31.387.574 0 1.04-.135 1.398-.405.357-.27.536-.62.536-1.054 0-.633-.153-1.078-.457-1.336-.305-.264-.75-.396-1.336-.396h-1.644V9.327h1.749c.996-.03 1.494-.554 1.494-1.573zM176.106 17c-.105-.193-.199-.477-.281-.852-.545.685-1.306 1.028-2.285 1.028-.896 0-1.658-.27-2.285-.809-.627-.545-.941-1.227-.941-2.048 0-1.03.381-1.81 1.143-2.338.762-.527 1.869-.79 3.322-.79h.914v-.502c0-.873-.378-1.31-1.133-1.31-.704 0-1.055.347-1.055 1.038h-2.962c0-.92.39-1.667 1.169-2.241.785-.574 1.784-.862 2.997-.862 1.213 0 2.171.296 2.874.888.703.592 1.063 1.403 1.081 2.435v4.21c.012.873.147 1.54.404 2.004V17h-2.962zm-1.854-1.934c.369 0 .674-.079.914-.237.246-.158.422-.337.527-.536v-1.52h-.861c-1.031 0-1.547.462-1.547 1.388 0 .27.091.49.273.66.181.163.413.245.694.245zM188.815 17h-2.979V9.775h-2.619V17h-2.962V7.49h8.56V17zM198.853 17h-2.98v-2.856c-.34.058-.633.087-.879.087-1.564 0-2.742-.301-3.533-.905-.785-.61-1.181-1.52-1.187-2.733V7.49h2.962v3.13c.006.515.129.866.369 1.054.241.181.704.272 1.389.272.287 0 .58-.026.879-.079V7.49h2.98V17zM205.796 17c-.106-.193-.199-.477-.281-.852-.545.685-1.307 1.028-2.286 1.028-.896 0-1.658-.27-2.285-.809-.627-.545-.94-1.227-.94-2.048 0-1.03.381-1.81 1.142-2.338.762-.527 1.87-.79 3.323-.79h.914v-.502c0-.873-.378-1.31-1.134-1.31-.703 0-1.055.347-1.055 1.038h-2.962c0-.92.39-1.667 1.169-2.241.786-.574 1.785-.862 2.997-.862 1.213 0 2.171.296 2.874.888.704.592 1.064 1.403 1.082 2.435v4.21c.011.873.146 1.54.404 2.004V17h-2.962zm-1.855-1.934c.37 0 .674-.079.914-.237.247-.158.422-.337.528-.536v-1.52h-.862c-1.031 0-1.546.462-1.546 1.388 0 .27.09.49.272.66a.996.996 0 00.694.245zM214.022 14.89c.416 0 .739-.11.967-.333.229-.229.34-.545.334-.95h2.778c0 1.043-.375 1.899-1.125 2.567-.745.668-1.705 1.002-2.883 1.002-1.383 0-2.473-.434-3.27-1.301-.797-.867-1.195-2.068-1.195-3.604v-.123c0-.96.176-1.807.527-2.54.358-.738.87-1.303 1.538-1.696.668-.398 1.459-.598 2.373-.598 1.237 0 2.218.343 2.945 1.029.726.685 1.09 1.614 1.09 2.786h-2.778c0-.492-.12-.87-.36-1.134-.24-.264-.563-.395-.967-.395-.767 0-1.216.489-1.345 1.467-.041.31-.061.739-.061 1.284 0 .955.114 1.617.343 1.986.228.37.591.554 1.089.554zM227.681 9.758h-2.997V17h-2.98V9.758h-2.953V7.49h8.93v2.268zM234.325 7.49h2.971V17h-2.971v-5.537L231.715 17h-2.98V7.49h2.98v5.52l2.61-5.52zM128.742 38h-3.085V27.585h-4.596V38h-3.085V25.203h10.766V38zM138.604 32.577h-4.852v3.05h5.73V38h-8.815V25.203h8.833v2.382h-5.748v2.698h4.852v2.294zM151.436 38h-3.068v-5.344h-4.544V38h-3.085V25.203h3.085v5.08h4.544v-5.08h3.068V38zM159.627 28.754c0-.404-.158-.73-.475-.976-.31-.246-.732-.369-1.265-.369-.498 0-.9.12-1.204.36a1.126 1.126 0 00-.449.932h-3.076c0-.703.199-1.333.598-1.89.404-.556.973-.99 1.705-1.3.732-.317 1.541-.475 2.426-.475 1.523 0 2.707.32 3.551.958.849.639 1.274 1.532 1.274 2.68 0 .587-.173 1.123-.519 1.61-.339.48-.811.86-1.415 1.142.692.246 1.219.62 1.582 1.125.369.498.554 1.119.554 1.863 0 1.148-.457 2.063-1.371 2.742-.914.674-2.133 1.011-3.656 1.011-1.412 0-2.584-.331-3.516-.993-.932-.668-1.397-1.576-1.397-2.725h3.093c0 .381.17.703.51.967.34.258.777.387 1.31.387.574 0 1.04-.135 1.397-.405.358-.27.536-.62.536-1.054 0-.633-.152-1.078-.457-1.336-.304-.264-.75-.396-1.336-.396h-1.643v-2.285h1.749c.996-.03 1.494-.554 1.494-1.573zM172.002 35.61h-4.228l-.738 2.39h-3.296l4.694-12.797h2.9L176.062 38h-3.313l-.747-2.39zm-3.489-2.383h2.751l-1.38-4.438-1.371 4.438z" fill="#000"/></svg><svg fill="none" viewBox="0 0 21 19" id="phone" xmlns="http://www.w3.org/2000/svg"><path d="M20.955 14.722c-.06-.162-.437-.4-1.133-.715-.189-.1-.458-.234-.805-.405a78.22 78.22 0 01-.947-.473 33 33 0 01-.798-.418c-.04-.027-.164-.106-.373-.236a4.311 4.311 0 00-.53-.29 1.06 1.06 0 00-.425-.095c-.199 0-.447.129-.745.385a6.844 6.844 0 00-.82.837 8.42 8.42 0 01-.79.836c-.28.257-.508.385-.687.385-.09 0-.201-.023-.336-.067a3.7 3.7 0 01-.306-.115 5.728 5.728 0 01-.357-.19 9.524 9.524 0 00-.284-.154c-1.362-.684-2.53-1.467-3.505-2.348-.974-.882-1.839-1.94-2.595-3.172a7.715 7.715 0 00-.171-.256 4.774 4.774 0 01-.21-.324 2.777 2.777 0 01-.126-.277.84.84 0 01-.074-.303c0-.162.141-.369.425-.621a8.81 8.81 0 01.924-.715 7.08 7.08 0 00.925-.742c.283-.27.425-.495.425-.675a.814.814 0 00-.104-.384c-.07-.13-.177-.29-.32-.48a17.817 17.817 0 00-.262-.337 29.128 29.128 0 01-.462-.721c-.16-.257-.333-.543-.522-.857a31.355 31.355 0 00-.448-.729C5.171.436 4.908.094 4.73.041A.916.916 0 004.416 0a5.4 5.4 0 00-1.052.135 6.37 6.37 0 00-1.021.283c-.498.19-1.024.738-1.581 1.646C.255 2.91 0 3.747 0 4.574c0 .243.017.479.052.709.035.229.097.488.187.776.09.287.161.501.216.64.054.14.156.39.306.75.149.36.238.58.268.66.348.882.76 1.67 1.238 2.362.785 1.152 1.856 2.341 3.214 3.57 1.357 1.227 2.672 2.197 3.945 2.907.765.432 1.635.805 2.61 1.12.09.027.333.108.73.243.398.135.674.228.828.277.154.05.39.115.708.196.319.081.604.137.858.169.254.031.515.047.783.047.915 0 1.84-.23 2.774-.688 1.004-.504 1.61-.98 1.82-1.43a4.95 4.95 0 00.313-.925c.1-.391.149-.708.149-.951a.687.687 0 00-.045-.284z" fill="#00793A"/></svg><svg fill="none" viewBox="0 0 19 19" id="phone-white" xmlns="http://www.w3.org/2000/svg"><path d="M18.96 14.722c-.054-.162-.396-.4-1.026-.715-.17-.1-.414-.234-.728-.405-.315-.171-.6-.329-.857-.473a29.207 29.207 0 01-.722-.418 17.675 17.675 0 00-.337-.236 3.798 3.798 0 00-.48-.29.884.884 0 00-.384-.095c-.18 0-.405.129-.675.385s-.517.535-.742.837c-.225.301-.463.58-.715.836-.252.257-.459.385-.62.385a.916.916 0 01-.304-.067 3.144 3.144 0 01-.277-.115 5.007 5.007 0 01-.324-.19 8.252 8.252 0 00-.256-.154c-1.233-.684-2.29-1.467-3.171-2.348-.882-.882-1.664-1.94-2.348-3.172a7.843 7.843 0 00-.155-.256 4.862 4.862 0 01-.19-.324 2.924 2.924 0 01-.114-.277.913.913 0 01-.067-.303c0-.162.128-.369.384-.621.257-.252.536-.49.837-.715.301-.225.58-.472.836-.742.257-.27.385-.495.385-.675a.881.881 0 00-.094-.384 3.75 3.75 0 00-.29-.48l-.237-.337a29.617 29.617 0 01-.418-.721 68.053 68.053 0 01-.472-.857c-.171-.315-.306-.558-.405-.729C4.679.436 4.44.094 4.279.041A.756.756 0 003.995 0c-.243 0-.56.045-.951.135-.391.09-.7.184-.924.283-.45.19-.927.738-1.43 1.646C.23 2.91 0 3.747 0 4.574c0 .243.016.479.047.709.032.229.088.488.17.776.08.287.145.501.195.64.049.14.141.39.276.75.135.36.216.58.243.66.315.882.688 1.67 1.12 2.362.71 1.152 1.68 2.341 2.908 3.57 1.228 1.227 2.417 2.197 3.569 2.907.693.432 1.48.805 2.361 1.12.082.027.302.108.662.243.36.135.61.228.748.277.14.05.354.115.641.196.288.081.547.137.776.169.23.031.466.047.709.047.827 0 1.664-.23 2.51-.688.908-.504 1.457-.98 1.645-1.43.1-.226.194-.534.284-.925.09-.391.135-.708.135-.951a.755.755 0 00-.04-.284z" fill="#fff"/></svg><svg fill="none" viewBox="0 0 22 22" id="time-white" xmlns="http://www.w3.org/2000/svg"><circle cx="11" cy="11" r="10" fill="#fff"/><path d="M11 0C4.935 0 0 4.935 0 11s4.935 11 11 11 11-4.935 11-11S17.065 0 11 0zm0 21.267C5.339 21.267.733 16.66.733 11S5.34.733 11 .733 21.267 5.34 21.267 11 16.66 21.267 11 21.267z" fill="#333"/><path d="M11 3v9H3" stroke="#333" stroke-width="1.5"/></svg><svg fill="none" viewBox="0 0 32 32" id="viber" xmlns="http://www.w3.org/2000/svg"><rect width="31.111" height="31.111" rx="13.333" transform="matrix(1 0 0 -1 0 31.556)" fill="#00793A"/><path d="M25.845 18.396c.696-5.86-.335-9.559-2.194-11.232l.001-.001c-3-2.858-13.132-3.28-16.722.128-1.612 1.668-2.18 4.115-2.242 7.144-.062 3.03-.136 8.707 5.154 10.247h.005l-.005 2.352s-.036.953.573 1.144c.696.226 1.01-.216 3.176-2.803 3.62.314 6.401-.405 6.717-.51.731-.245 4.868-.792 5.537-6.47zM13.948 23.72s-2.292 2.857-3.005 3.599c-.233.241-.489.219-.485-.26 0-.314.018-3.904.018-3.904-4.485-1.285-4.22-6.12-4.172-8.648.049-2.53.511-4.602 1.876-5.997 3.15-2.952 12.033-2.292 14.296-.165 2.767 2.453 1.782 9.383 1.788 9.62-.569 4.738-3.921 5.038-4.537 5.243-.264.088-2.709.717-5.78.512z" fill="#fff"/><path d="M15.216 9.066c-.375 0-.375.584 0 .589 2.904.022 5.295 2.046 5.322 5.759 0 .392.573.387.568-.005-.032-4-2.643-6.32-5.89-6.343z" fill="#fff"/><path d="M19.035 14.799c-.008.386.564.405.57.013.047-2.206-1.313-4.023-3.87-4.214-.374-.028-.413.56-.04.588 2.217.168 3.385 1.68 3.34 3.613zM18.423 17.308c-.48-.278-.969-.105-1.171.169l-.423.547c-.215.278-.617.241-.617.241-2.93-.775-3.713-3.841-3.713-3.841s-.036-.415.232-.638l.529-.438c.264-.21.431-.715.162-1.212-.72-1.3-1.203-1.748-1.449-2.092-.258-.324-.647-.397-1.051-.178h-.01c-.84.492-1.76 1.413-1.466 2.36.502 1 1.426 4.186 4.37 6.593 1.383 1.139 3.573 2.305 4.502 2.575l.009.013c.916.305 1.806-.651 2.282-1.517v-.007c.21-.42.14-.816-.167-1.075-.547-.533-1.371-1.121-2.019-1.5z" fill="#fff"/><path d="M16.136 12.768c.935.054 1.388.542 1.436 1.544.018.392.587.365.569-.027-.062-1.308-.745-2.038-1.974-2.106-.374-.022-.409.566-.03.588z" fill="#fff"/></svg><svg fill="none" viewBox="0 0 28 28" id="viber-white" xmlns="http://www.w3.org/2000/svg"><rect width="28" height="28" rx="12" transform="matrix(1 0 0 -1 0 28)" fill="#fff"/><g clip-path="url(#kclip0_2_1905)" fill="#333"><path d="M23.26 15.156c.627-5.273-.3-8.603-1.973-10.108v-.001c-2.7-2.572-11.819-2.953-15.05.115-1.45 1.5-1.961 3.703-2.017 6.43-.056 2.727-.123 7.836 4.638 9.222h.005l-.005 2.117s-.032.857.516 1.03c.626.203.91-.195 2.858-2.523 3.259.283 5.761-.365 6.046-.46.658-.22 4.38-.712 4.983-5.822zM12.554 19.95s-2.062 2.571-2.703 3.24c-.21.216-.44.196-.437-.235 0-.282.016-3.514.016-3.514-4.037-1.156-3.799-5.507-3.755-7.783.044-2.276.46-4.141 1.689-5.397 2.834-2.657 10.829-2.063 12.866-.148 2.49 2.207 1.604 8.444 1.609 8.657-.512 4.265-3.529 4.535-4.084 4.72-.237.078-2.437.645-5.2.46z"/><path d="M13.694 6.76c-.336 0-.336.525 0 .53 2.614.02 4.767 1.841 4.79 5.183 0 .352.516.348.512-.005-.029-3.6-2.38-5.688-5.302-5.708z"/><path d="M17.132 11.919c-.008.348.508.365.512.012.043-1.985-1.181-3.62-3.481-3.793-.337-.024-.372.505-.036.53 1.995.15 3.046 1.512 3.005 3.25zM16.581 14.177c-.432-.25-.872-.094-1.054.152l-.38.492c-.194.25-.556.217-.556.217-2.637-.697-3.342-3.457-3.342-3.457s-.033-.373.209-.574l.476-.393c.238-.19.388-.645.146-1.092-.647-1.17-1.082-1.573-1.304-1.883-.232-.291-.582-.357-.946-.16h-.008c-.757.443-1.586 1.272-1.32 2.125.452.9 1.283 3.767 3.932 5.933 1.246 1.025 3.216 2.075 4.053 2.317l.007.012c.825.275 1.626-.586 2.054-1.366v-.006c.19-.377.127-.734-.15-.967-.492-.48-1.234-1.01-1.817-1.35z"/><path d="M14.523 10.091c.84.05 1.249.489 1.292 1.39.016.353.528.329.512-.024-.056-1.178-.67-1.834-1.776-1.895-.337-.02-.368.51-.028.53z"/></g><defs><clipPath id="kclip0_2_1905"><path fill="#fff" transform="translate(3 3)" d="M0 0h21v21H0z"/></clipPath></defs></svg><svg fill="none" viewBox="0 0 32 32" id="whatsapp" xmlns="http://www.w3.org/2000/svg"><rect width="31.111" height="31.111" rx="13.333" transform="matrix(1 0 0 -1 .89 31.556)" fill="#00793A"/><path fill-rule="evenodd" clip-rule="evenodd" d="M23.248 9.412a9.367 9.367 0 00-6.653-2.745c-5.184 0-9.403 4.199-9.405 9.36 0 1.649.433 3.26 1.256 4.679l-1.335 4.85 4.986-1.302a9.431 9.431 0 004.495 1.14h.004c5.183 0 9.402-4.2 9.404-9.36a9.28 9.28 0 00-2.752-6.622zm-6.653 14.4h-.003a7.835 7.835 0 01-3.978-1.084l-.286-.168-2.958.772.79-2.87-.187-.295a7.733 7.733 0 01-1.195-4.14c.002-4.29 3.509-7.78 7.82-7.78 2.088.002 4.051.812 5.527 2.282a7.715 7.715 0 012.288 5.504c-.002 4.29-3.509 7.78-7.818 7.78zm4.288-5.826c-.235-.117-1.39-.683-1.606-.76-.215-.079-.372-.117-.528.117-.157.233-.607.76-.744.916-.137.157-.274.176-.51.059-.235-.117-.992-.364-1.89-1.16-.698-.621-1.17-1.387-1.307-1.62-.137-.235 0-.35.104-.478.254-.315.509-.644.587-.8.078-.156.04-.293-.02-.41-.058-.117-.528-1.268-.724-1.736-.191-.456-.385-.395-.529-.402a9.437 9.437 0 00-.45-.008.865.865 0 00-.627.293c-.215.234-.822.8-.822 1.95 0 1.152.842 2.264.96 2.42.117.156 1.656 2.518 4.014 3.531.56.241.998.385 1.34.493a3.236 3.236 0 001.48.093c.45-.068 1.39-.566 1.586-1.112.195-.547.195-1.015.137-1.113-.06-.097-.216-.156-.45-.273z" fill="#fff"/></svg><svg fill="none" viewBox="0 0 28 28" id="whatsapp-white" xmlns="http://www.w3.org/2000/svg"><rect width="28" height="28" rx="12" transform="matrix(1 0 0 -1 0 28)" fill="#fff"/><path fill-rule="evenodd" clip-rule="evenodd" d="M20.123 8.07a8.43 8.43 0 00-5.988-2.47c-4.665 0-8.462 3.779-8.464 8.423 0 1.485.39 2.934 1.13 4.212L5.6 22.6l4.487-1.171a8.487 8.487 0 004.045 1.025h.004c4.665 0 8.462-3.78 8.464-8.424a8.352 8.352 0 00-2.477-5.96zm-5.988 12.961h-.002c-1.263 0-2.5-.338-3.581-.976l-.257-.151-2.663.695.711-2.584-.167-.265A6.96 6.96 0 017.1 14.024c.002-3.86 3.158-7.001 7.038-7.001 1.88 0 3.646.73 4.974 2.053a6.943 6.943 0 012.059 4.954c-.002 3.86-3.158 7.001-7.035 7.001zm3.86-5.244c-.212-.105-1.252-.614-1.446-.684-.193-.07-.335-.106-.475.105-.142.21-.547.685-.67.825-.124.14-.247.158-.458.053-.212-.105-.893-.328-1.701-1.045-.629-.558-1.053-1.247-1.177-1.458-.123-.21 0-.314.093-.43.229-.282.458-.579.529-.72.07-.14.035-.263-.018-.368-.053-.105-.476-1.141-.652-1.563-.172-.41-.346-.355-.476-.361a8.529 8.529 0 00-.405-.008c-.141 0-.37.053-.564.264-.194.21-.74.72-.74 1.756s.757 2.037.863 2.177c.106.14 1.492 2.267 3.613 3.178.505.217.899.347 1.206.444.506.16.968.137 1.332.083.406-.06 1.251-.51 1.428-1 .176-.492.176-.914.123-1.002-.053-.088-.194-.14-.405-.246z" fill="#333"/></svg></svg>